G04 #@! TF.FileFunction,Soldermask,Top*
%FSLAX46Y46*%
G04 Gerber Fmt 4.6, Leading zero omitted, Abs format (unit mm)*
G04 Created by KiCad (PCBNEW 4.0.6) date 11/05/17 21:20:18*
%MOMM*%
%LPD*%
G01*
G04 APERTURE LIST*
%ADD10C,0.254000*%
%ADD11R,1.800200X1.800200*%
%ADD12C,1.800200*%
%ADD13C,4.000000*%
%ADD14O,1.957680X1.800200*%
%ADD15R,1.900000X1.900000*%
%ADD16O,1.900000X1.900000*%
%ADD17C,2.700000*%
%ADD18C,2.800000*%
%ADD19C,2.577000*%
%ADD20C,2.400000*%
%ADD21C,2.400000*%
%ADD22C,1.901800*%
%ADD23C,4.187800*%
%ADD24C,2.350000*%
%ADD25C,3.248000*%
%ADD26O,1.100000X1.700000*%
%ADD27O,1.700000X2.200000*%
%ADD28C,1.100000*%
G04 APERTURE END LIST*
D10*
D11*
X115570000Y-33020000D03*
D12*
X113030000Y-33020000D03*
D13*
X47625000Y-85725000D03*
X142875000Y-85725000D03*
X238125000Y-85725000D03*
X238125000Y-47625000D03*
X142875000Y-47625000D03*
X47625000Y-47625000D03*
D11*
X39370000Y-33020000D03*
D12*
X36830000Y-33020000D03*
D11*
X58420000Y-33020000D03*
D12*
X55880000Y-33020000D03*
D11*
X77470000Y-33020000D03*
D12*
X74930000Y-33020000D03*
D11*
X96520000Y-33020000D03*
D12*
X93980000Y-33020000D03*
D11*
X134620000Y-33020000D03*
D12*
X132080000Y-33020000D03*
D11*
X153670000Y-33020000D03*
D12*
X151130000Y-33020000D03*
D11*
X172720000Y-33020000D03*
D12*
X170180000Y-33020000D03*
D11*
X191770000Y-33020000D03*
D12*
X189230000Y-33020000D03*
D11*
X210820000Y-33020000D03*
D12*
X208280000Y-33020000D03*
D11*
X229870000Y-33020000D03*
D12*
X227330000Y-33020000D03*
D11*
X41751250Y-52070000D03*
D12*
X39211250Y-52070000D03*
D11*
X63182500Y-52070000D03*
D12*
X60642500Y-52070000D03*
D11*
X82232500Y-52070000D03*
D12*
X79692500Y-52070000D03*
D11*
X101282500Y-52070000D03*
D12*
X98742500Y-52070000D03*
D11*
X120332500Y-52070000D03*
D12*
X117792500Y-52070000D03*
D11*
X139382500Y-52070000D03*
D12*
X136842500Y-52070000D03*
D11*
X158432500Y-52070000D03*
D12*
X155892500Y-52070000D03*
D11*
X177482500Y-52070000D03*
D12*
X174942500Y-52070000D03*
D11*
X196532500Y-52070000D03*
D12*
X193992500Y-52070000D03*
D11*
X215582500Y-52070000D03*
D12*
X213042500Y-52070000D03*
D11*
X241776250Y-52070000D03*
D12*
X239236250Y-52070000D03*
D11*
X46513750Y-71120000D03*
D12*
X43973750Y-71120000D03*
D11*
X72707500Y-71120000D03*
D12*
X70167500Y-71120000D03*
D11*
X91757500Y-71120000D03*
D12*
X89217500Y-71120000D03*
D11*
X110807500Y-71120000D03*
D12*
X108267500Y-71120000D03*
D11*
X129857500Y-71120000D03*
D12*
X127317500Y-71120000D03*
D11*
X148907500Y-71120000D03*
D12*
X146367500Y-71120000D03*
D11*
X167957500Y-71120000D03*
D12*
X165417500Y-71120000D03*
D11*
X187007500Y-71120000D03*
D12*
X184467500Y-71120000D03*
D11*
X206057500Y-71120000D03*
D12*
X203517500Y-71120000D03*
D11*
X41751250Y-90170000D03*
D12*
X39211250Y-90170000D03*
D11*
X63182500Y-90170000D03*
D12*
X60642500Y-90170000D03*
D11*
X117951250Y-90170000D03*
D12*
X115411250Y-90170000D03*
D11*
X151288750Y-90170000D03*
D12*
X148748750Y-90170000D03*
D11*
X203676250Y-90170000D03*
D12*
X201136250Y-90170000D03*
D11*
X246538750Y-90170000D03*
D12*
X243998750Y-90170000D03*
D11*
X248920000Y-33020000D03*
D12*
X246380000Y-33020000D03*
D11*
X165576250Y-90170000D03*
D12*
X163036250Y-90170000D03*
D11*
X222566230Y-71120000D03*
X227488750Y-71120000D03*
D14*
X225027490Y-71120000D03*
D11*
X243997480Y-71120000D03*
X248920000Y-71120000D03*
D14*
X246458740Y-71120000D03*
D11*
X220184980Y-90170000D03*
X225107500Y-90170000D03*
D14*
X222646240Y-90170000D03*
D11*
X79691230Y-90170000D03*
X84613750Y-90170000D03*
D14*
X82152490Y-90170000D03*
D15*
X29210000Y-62865000D03*
D16*
X29210000Y-65405000D03*
X29210000Y-67945000D03*
X29210000Y-70485000D03*
D15*
X218281250Y-104140000D03*
D16*
X215741250Y-104140000D03*
X213201250Y-104140000D03*
X210661250Y-104140000D03*
X208121250Y-104140000D03*
X205581250Y-104140000D03*
D17*
X35560276Y-43179328D02*
X35599724Y-42600672D01*
D18*
X41881969Y-40660694D02*
X40618031Y-42079306D01*
D19*
X41900000Y-40640000D03*
X40600000Y-42100000D03*
D17*
X87947776Y-81279328D02*
X87987224Y-80700672D01*
D18*
X94269469Y-78760694D02*
X93005531Y-80179306D01*
D19*
X94287500Y-78740000D03*
X92987500Y-80200000D03*
D17*
X245110276Y-43179328D02*
X245149724Y-42600672D01*
D18*
X251431969Y-40660694D02*
X250168031Y-42079306D01*
D19*
X251450000Y-40640000D03*
X250150000Y-42100000D03*
D17*
X199866526Y-100329328D02*
X199905974Y-99750672D01*
D18*
X206188219Y-97810694D02*
X204924281Y-99229306D01*
D19*
X206206250Y-97790000D03*
X204906250Y-99250000D03*
D17*
X59372776Y-100329328D02*
X59412224Y-99750672D01*
D18*
X65694469Y-97810694D02*
X64430531Y-99229306D01*
D19*
X65712500Y-97790000D03*
X64412500Y-99250000D03*
D17*
X202247776Y-81279328D02*
X202287224Y-80700672D01*
D18*
X208569469Y-78760694D02*
X207305531Y-80179306D01*
D19*
X208587500Y-78740000D03*
X207287500Y-80200000D03*
D17*
X183197776Y-81279328D02*
X183237224Y-80700672D01*
D18*
X189519469Y-78760694D02*
X188255531Y-80179306D01*
D19*
X189537500Y-78740000D03*
X188237500Y-80200000D03*
D17*
X164147776Y-81279328D02*
X164187224Y-80700672D01*
D18*
X170469469Y-78760694D02*
X169205531Y-80179306D01*
D19*
X170487500Y-78740000D03*
X169187500Y-80200000D03*
D17*
X145097776Y-81279328D02*
X145137224Y-80700672D01*
D18*
X151419469Y-78760694D02*
X150155531Y-80179306D01*
D19*
X151437500Y-78740000D03*
X150137500Y-80200000D03*
D17*
X126047776Y-81279328D02*
X126087224Y-80700672D01*
D18*
X132369469Y-78760694D02*
X131105531Y-80179306D01*
D19*
X132387500Y-78740000D03*
X131087500Y-80200000D03*
D17*
X106997776Y-81279328D02*
X107037224Y-80700672D01*
D18*
X113319469Y-78760694D02*
X112055531Y-80179306D01*
D19*
X113337500Y-78740000D03*
X112037500Y-80200000D03*
D17*
X68897776Y-81279328D02*
X68937224Y-80700672D01*
D18*
X75219469Y-78760694D02*
X73955531Y-80179306D01*
D19*
X75237500Y-78740000D03*
X73937500Y-80200000D03*
D17*
X211772776Y-62229328D02*
X211812224Y-61650672D01*
D18*
X218094469Y-59710694D02*
X216830531Y-61129306D01*
D19*
X218112500Y-59690000D03*
X216812500Y-61150000D03*
D17*
X192722776Y-62229328D02*
X192762224Y-61650672D01*
D18*
X199044469Y-59710694D02*
X197780531Y-61129306D01*
D19*
X199062500Y-59690000D03*
X197762500Y-61150000D03*
D17*
X173672776Y-62229328D02*
X173712224Y-61650672D01*
D18*
X179994469Y-59710694D02*
X178730531Y-61129306D01*
D19*
X180012500Y-59690000D03*
X178712500Y-61150000D03*
D17*
X154622776Y-62229328D02*
X154662224Y-61650672D01*
D18*
X160944469Y-59710694D02*
X159680531Y-61129306D01*
D19*
X160962500Y-59690000D03*
X159662500Y-61150000D03*
D17*
X135572776Y-62229328D02*
X135612224Y-61650672D01*
D18*
X141894469Y-59710694D02*
X140630531Y-61129306D01*
D19*
X141912500Y-59690000D03*
X140612500Y-61150000D03*
D17*
X116522776Y-62229328D02*
X116562224Y-61650672D01*
D18*
X122844469Y-59710694D02*
X121580531Y-61129306D01*
D19*
X122862500Y-59690000D03*
X121562500Y-61150000D03*
D17*
X97472776Y-62229328D02*
X97512224Y-61650672D01*
D18*
X103794469Y-59710694D02*
X102530531Y-61129306D01*
D19*
X103812500Y-59690000D03*
X102512500Y-61150000D03*
D17*
X78422776Y-62229328D02*
X78462224Y-61650672D01*
D18*
X84744469Y-59710694D02*
X83480531Y-61129306D01*
D19*
X84762500Y-59690000D03*
X83462500Y-61150000D03*
D17*
X59372776Y-62229328D02*
X59412224Y-61650672D01*
D18*
X65694469Y-59710694D02*
X64430531Y-61129306D01*
D19*
X65712500Y-59690000D03*
X64412500Y-61150000D03*
D17*
X226060276Y-43179328D02*
X226099724Y-42600672D01*
D18*
X232381969Y-40660694D02*
X231118031Y-42079306D01*
D19*
X232400000Y-40640000D03*
X231100000Y-42100000D03*
D17*
X207010276Y-43179328D02*
X207049724Y-42600672D01*
D18*
X213331969Y-40660694D02*
X212068031Y-42079306D01*
D19*
X213350000Y-40640000D03*
X212050000Y-42100000D03*
D17*
X187960276Y-43179328D02*
X187999724Y-42600672D01*
D18*
X194281969Y-40660694D02*
X193018031Y-42079306D01*
D19*
X194300000Y-40640000D03*
X193000000Y-42100000D03*
D17*
X168910276Y-43179328D02*
X168949724Y-42600672D01*
D18*
X175231969Y-40660694D02*
X173968031Y-42079306D01*
D19*
X175250000Y-40640000D03*
X173950000Y-42100000D03*
D17*
X149860276Y-43179328D02*
X149899724Y-42600672D01*
D18*
X156181969Y-40660694D02*
X154918031Y-42079306D01*
D19*
X156200000Y-40640000D03*
X154900000Y-42100000D03*
D17*
X130810276Y-43179328D02*
X130849724Y-42600672D01*
D18*
X137131969Y-40660694D02*
X135868031Y-42079306D01*
D19*
X137150000Y-40640000D03*
X135850000Y-42100000D03*
D17*
X111760276Y-43179328D02*
X111799724Y-42600672D01*
D18*
X118081969Y-40660694D02*
X116818031Y-42079306D01*
D19*
X118100000Y-40640000D03*
X116800000Y-42100000D03*
D17*
X92710276Y-43179328D02*
X92749724Y-42600672D01*
D18*
X99031969Y-40660694D02*
X97768031Y-42079306D01*
D19*
X99050000Y-40640000D03*
X97750000Y-42100000D03*
D17*
X73660276Y-43179328D02*
X73699724Y-42600672D01*
D18*
X79981969Y-40660694D02*
X78718031Y-42079306D01*
D19*
X80000000Y-40640000D03*
X78700000Y-42100000D03*
D17*
X54610276Y-43179328D02*
X54649724Y-42600672D01*
D18*
X60931969Y-40660694D02*
X59668031Y-42079306D01*
D19*
X60950000Y-40640000D03*
X59650000Y-42100000D03*
D17*
X37941526Y-100329328D02*
X37980974Y-99750672D01*
D18*
X44263219Y-97810694D02*
X42999281Y-99229306D01*
D19*
X44281250Y-97790000D03*
X42981250Y-99250000D03*
D17*
X37941526Y-62229328D02*
X37980974Y-61650672D01*
D18*
X44263219Y-59710694D02*
X42999281Y-61129306D01*
D19*
X44281250Y-59690000D03*
X42981250Y-61150000D03*
D17*
X242729026Y-100329328D02*
X242768474Y-99750672D01*
D18*
X249050719Y-97810694D02*
X247786781Y-99229306D01*
D19*
X249068750Y-97790000D03*
X247768750Y-99250000D03*
D17*
X42704026Y-81279328D02*
X42743474Y-80700672D01*
D18*
X49025719Y-78760694D02*
X47761781Y-80179306D01*
D19*
X49043750Y-78740000D03*
X47743750Y-80200000D03*
D17*
X237966526Y-62229328D02*
X238005974Y-61650672D01*
D18*
X244288219Y-59710694D02*
X243024281Y-61129306D01*
D19*
X244306250Y-59690000D03*
X243006250Y-61150000D03*
D20*
X227618199Y-78760694D02*
X226354261Y-80179306D01*
D18*
X230000719Y-78760694D02*
X228736781Y-80179306D01*
D21*
X226336230Y-80200000D03*
X227636230Y-78740000D03*
D17*
X221296506Y-81279328D02*
X221335954Y-80700672D01*
D22*
X228916230Y-76200000D03*
D23*
X223836230Y-76200000D03*
X226218750Y-76200000D03*
D22*
X221138750Y-76200000D03*
D24*
X223677325Y-81304271D02*
X223720175Y-80675729D01*
D19*
X230018750Y-78740000D03*
X228718750Y-80200000D03*
D20*
X225236949Y-97810694D02*
X223973011Y-99229306D01*
D18*
X227619469Y-97810694D02*
X226355531Y-99229306D01*
D21*
X223954980Y-99250000D03*
X225254980Y-97790000D03*
D17*
X218915256Y-100329328D02*
X218954704Y-99750672D01*
D22*
X226534980Y-95250000D03*
D23*
X221454980Y-95250000D03*
X223837500Y-95250000D03*
D22*
X218757500Y-95250000D03*
D24*
X221296075Y-100354271D02*
X221338925Y-99725729D01*
D19*
X227637500Y-97790000D03*
X226337500Y-99250000D03*
D20*
X249049449Y-78760694D02*
X247785511Y-80179306D01*
D18*
X251431969Y-78760694D02*
X250168031Y-80179306D01*
D21*
X247767480Y-80200000D03*
X249067480Y-78740000D03*
D17*
X242727756Y-81279328D02*
X242767204Y-80700672D01*
D22*
X250347480Y-76200000D03*
D23*
X245267480Y-76200000D03*
X247650000Y-76200000D03*
D22*
X242570000Y-76200000D03*
D24*
X245108575Y-81304271D02*
X245151425Y-80675729D01*
D19*
X251450000Y-78740000D03*
X250150000Y-80200000D03*
D20*
X84743199Y-97810694D02*
X83479261Y-99229306D01*
D18*
X87125719Y-97810694D02*
X85861781Y-99229306D01*
D21*
X83461230Y-99250000D03*
X84761230Y-97790000D03*
D17*
X78421506Y-100329328D02*
X78460954Y-99750672D01*
D22*
X86041230Y-95250000D03*
D23*
X80961230Y-95250000D03*
X83343750Y-95250000D03*
D22*
X78263750Y-95250000D03*
D24*
X80802325Y-100354271D02*
X80845175Y-99725729D01*
D19*
X87143750Y-97790000D03*
X85843750Y-99250000D03*
D25*
X200056750Y-102235000D03*
D17*
X147479026Y-100329328D02*
X147518474Y-99750672D01*
D18*
X153800719Y-97810694D02*
X152536781Y-99229306D01*
D19*
X153818750Y-97790000D03*
X152518750Y-99250000D03*
D17*
X114141526Y-100329328D02*
X114180974Y-99750672D01*
D18*
X120463219Y-97810694D02*
X119199281Y-99229306D01*
D19*
X120481250Y-97790000D03*
X119181250Y-99250000D03*
D17*
X161766526Y-100329328D02*
X161805974Y-99750672D01*
D18*
X168088219Y-97810694D02*
X166824281Y-99229306D01*
D19*
X168106250Y-97790000D03*
X166806250Y-99250000D03*
D26*
X142875000Y-37047780D03*
X142077440Y-35448900D03*
X144472660Y-37047780D03*
X143672560Y-35448900D03*
D27*
X146431000Y-30988000D03*
X139319000Y-30988000D03*
D26*
X141277340Y-37047780D03*
D27*
X139319000Y-35814000D03*
X146431000Y-35814000D03*
D15*
X256540000Y-62865000D03*
D16*
X256540000Y-65405000D03*
X256540000Y-67945000D03*
X256540000Y-70485000D03*
D28*
X222062400Y-41177600D03*
X219862400Y-41177600D03*
X217662400Y-41177600D03*
M02*
